<?xml version="1.0" encoding="UTF-8"?>
<svg width="96px" height="30px" viewBox="0 0 96 30" version="1.1" xmlns="http://www.w3.org/2000/svg" xmlns:xlink="http://www.w3.org/1999/xlink">
    <!-- Generator: Sketch 53.1 (72631) - https://sketchapp.com -->
    <title>SIGNAL-LOGO</title>
    <desc>Created with Sketch.</desc>
    <g id="Symbols" stroke="none" stroke-width="1" fill="none" fill-rule="evenodd">
        <g id="header/signal" transform="translate(-159.000000, -9.000000)" fill="#FFFFFF">
            <g id="SIGNAL-LOGO">
                <g transform="translate(159.000000, 9.000000)">
                    <path d="M19.7954102,11.6167934 L19.0161133,11.6167934 C19.0037434,10.8867551 18.9728193,10.3707012 18.9233398,10.0686164 C18.7316071,9.79170526 18.3991723,9.546265 17.9260254,9.33228824 C17.4528785,9.11831148 16.922529,9.0113247 16.3349609,9.0113247 C15.4938109,9.0113247 14.8428571,9.22687159 14.3820801,9.65797183 C13.921303,10.0890721 13.690918,10.5941126 13.690918,11.1731086 C13.6971029,11.5884752 13.7651361,11.9251689 13.8950195,12.1831997 C14.024903,12.4412305 14.210448,12.645764 14.4516602,12.7968065 C14.6928723,12.9478489 15.0485003,13.0863024 15.5185547,13.2121711 C15.8772804,13.2876923 16.3767058,13.3820924 17.0168457,13.4953742 C17.6569856,13.608656 18.0729157,13.6873227 18.2646484,13.7313768 C18.7656275,13.8635389 19.1707341,14.0224457 19.4799805,14.208102 C19.7892268,14.3937584 20.035074,14.6077319 20.2175293,14.8500291 C20.3999846,15.0923263 20.5499669,15.3975533 20.6674805,15.7657192 C20.7849941,16.1338851 20.84375,16.5476722 20.84375,17.0070929 C20.84375,17.8126525 20.6798519,18.5206532 20.3520508,19.1311164 C20.1046537,19.5905371 19.7613954,20.0106175 19.3222656,20.3913703 C18.8831358,20.772123 18.4316429,21.0568967 17.9677734,21.2456997 C17.2255822,21.5477845 16.3349661,21.6988247 15.2958984,21.6988247 C14.5351524,21.6988247 13.8579131,21.6264513 13.2641602,21.4817023 C12.6704072,21.3369533 12.0179072,21.0883664 11.3066406,20.7359341 C11.4983734,20.0184826 11.5973307,18.9265881 11.6035156,17.4602179 L12.3828125,17.4602179 C12.3704426,17.9133452 12.4044592,18.4765991 12.4848633,19.1499966 C12.7198905,19.5401895 13.1219047,19.8831765 13.690918,20.1789679 C14.2599312,20.4747593 14.881507,20.6226528 15.5556641,20.6226528 C16.1432321,20.6226528 16.6673968,20.5172394 17.1281738,20.3064093 C17.5889509,20.0955793 17.9229319,19.8045123 18.130127,19.4331997 C18.337322,19.0618871 18.440918,18.6402333 18.440918,18.1682257 C18.440918,17.7717394 18.3682462,17.431899 18.2229004,17.1486945 C18.0775546,16.8654899 17.850262,16.6389297 17.5410156,16.469007 C17.2317693,16.2990843 16.6875039,16.1228707 15.9082031,15.9403612 C14.7887314,15.7012107 14.0527361,15.5281438 13.7001953,15.4211554 C13.1682916,15.2575261 12.7399919,15.0215259 12.4152832,14.7131476 C12.0905745,14.4047693 11.8478198,14.031889 11.6870117,13.5944953 C11.5262036,13.1571016 11.4458008,12.6866744 11.4458008,12.1831997 C11.4458008,11.4783351 11.5911444,10.8285477 11.8818359,10.2338182 C12.1725275,9.63908865 12.5559872,9.17810151 13.0322266,8.85084293 C13.5084659,8.52358435 14.0465465,8.28915744 14.6464844,8.14755517 C15.2464223,8.0059529 15.8618133,7.93515282 16.4926758,7.93515282 C17.148278,7.93515282 17.7837697,7.99493955 18.3991699,8.1145148 C19.0145701,8.23409005 19.5480121,8.4071569 19.9995117,8.63372053 L20.0737305,8.86028303 C19.9871415,9.26935626 19.9237469,9.67055667 19.8835449,10.0638963 C19.8433429,10.457236 19.8139649,10.9748632 19.7954102,11.6167934 Z M28.6274414,8.16171532 L28.6274414,8.99244449 C28.0027638,9.01132479 27.6316738,9.03492482 27.5141602,9.06324527 C27.3966465,9.09156573 27.3131513,9.12617909 27.2636719,9.16708642 C27.2141925,9.20799374 27.1801759,9.25991379 27.1616211,9.32284814 C27.1183266,9.42983652 27.0874024,9.63437006 27.0688477,9.93645491 C27.0564778,10.1000842 27.0472006,10.4084578 27.0410156,10.8615851 C27.0162759,12.4097699 27.0039062,13.2436375 27.0039062,13.3632127 L27.0039062,17.1675747 L27.0317383,18.8951138 C27.0317383,19.5433375 27.0626625,19.9649913 27.1245117,20.1600877 C27.1492514,20.2481958 27.1909991,20.3158492 27.2497559,20.36305 C27.3085127,20.4102507 27.4012852,20.4480108 27.5280762,20.4763312 C27.6548672,20.5046517 28.0213186,20.525105 28.6274414,20.5376919 L28.6274414,21.3684211 C27.6192983,21.3306604 26.5431372,21.3117804 25.3989258,21.3117804 C24.4031526,21.3117804 23.5156289,21.3306604 22.7363281,21.3684211 L22.7363281,20.5376919 C23.3795605,20.5125181 23.7506505,20.4904915 23.8496094,20.4716112 C23.9794928,20.4464374 24.0676267,20.4118241 24.1140137,20.36777 C24.1604006,20.323716 24.1897786,20.2733693 24.2021484,20.2167283 C24.2207032,20.1412071 24.2454426,19.8454202 24.2763672,19.3293586 C24.3258466,18.5741464 24.3505859,17.8755857 24.3505859,17.2336554 L24.3505859,13.2876919 C24.3505859,12.0352985 24.3444011,11.229751 24.3320312,10.8710252 C24.3011066,10.0717591 24.2639976,9.57143855 24.2207031,9.37004866 C24.2021483,9.28823401 24.1727704,9.22530061 24.1325684,9.18124657 C24.0923663,9.13719253 24.0181483,9.10100583 23.9099121,9.07268538 C23.8016759,9.04436492 23.4104851,9.01761823 22.7363281,8.99244449 L22.7363281,8.16171532 C23.5156289,8.19947593 24.4093374,8.21835595 25.4174805,8.21835595 C26.5493221,8.21835595 27.6192983,8.19947593 28.6274414,8.16171532 Z M42.8217773,11.9849575 L42.0795898,11.9849575 C42.0795898,11.7835676 42.0672202,11.484634 42.0424805,11.0881476 C42.0239257,10.8112365 41.9930015,10.5752363 41.949707,10.3801398 C41.7950839,10.1913368 41.6280933,10.0371499 41.4487305,9.9175747 C41.0467102,9.64066359 40.5828477,9.42354337 40.0571289,9.26620751 C39.5314101,9.10887165 38.9376661,9.03020491 38.2758789,9.03020491 C36.7296472,9.03020491 35.4911342,9.51793874 34.5603027,10.4934211 C33.6294713,11.4689034 33.1640625,12.8093847 33.1640625,14.5149054 C33.1640625,16.377762 33.6542106,17.8582702 34.6345215,18.9564744 C35.6148324,20.0546787 36.8162364,20.6037726 38.2387695,20.6037726 C38.6531596,20.6037726 39.05672,20.5597192 39.4494629,20.4716112 C39.8422057,20.3835031 40.2272117,20.2544896 40.6044922,20.0845669 C40.623047,19.9146442 40.6385091,19.5873905 40.6508789,19.1027961 C40.6632488,18.6182016 40.6694336,18.3255613 40.6694336,18.2248664 C40.6694336,17.6206967 40.6446943,17.2619763 40.5952148,17.1486945 C40.5581053,17.0731733 40.47461,17.0196799 40.3447266,16.9882127 C40.1282541,16.9252784 39.5406949,16.8654916 38.5820312,16.8088507 L38.5820312,16.0442023 L41.355957,16.0819627 L44.1484375,16.0442023 L44.1484375,16.6672492 C43.7897117,16.7427704 43.5546881,16.8466105 43.4433594,16.9787726 C43.387695,17.041707 43.3536784,17.2147738 43.3413086,17.4979783 C43.310384,18.2217233 43.2949219,18.7409238 43.2949219,19.0555955 C43.2949219,19.5338965 43.3227536,20.024777 43.378418,20.5282518 C42.2280216,20.9562053 41.2245323,21.2582856 40.3679199,21.4345018 C39.5113076,21.6107179 38.6562543,21.6988247 37.8027344,21.6988247 C36.4111259,21.6988247 35.1803439,21.4596778 34.1103516,20.9813768 C33.3619754,20.6415313 32.7218451,20.2041442 32.1899414,19.6692023 C31.6580377,19.1342604 31.2529311,18.5584198 30.9746094,17.9416632 C30.5354796,16.9850612 30.315918,15.9214868 30.315918,14.750908 C30.315918,13.7628389 30.4597154,12.9006513 30.7473145,12.1643195 C31.0349135,11.4279877 31.4353815,10.7844937 31.9487305,10.2338182 C32.4620794,9.68314269 33.045,9.23631556 33.6975098,8.8933234 C34.3500195,8.55033123 35.0334437,8.30489098 35.7478027,8.15699527 C36.4621618,8.00909957 37.2460895,7.93515282 38.0996094,7.93515282 C39.1510469,7.93515282 40.1297969,8.03269959 41.0358887,8.22779605 C41.9419804,8.42289251 42.6485977,8.63686607 43.1557617,8.86972314 L43.2299805,9.04908512 C43.0815422,9.60290733 42.9454759,10.5815217 42.8217773,11.9849575 Z M45.7905273,20.5660122 C46.5203487,20.5282516 46.937825,20.4936382 47.0429688,20.4621711 C47.1110029,20.4369973 47.1682127,20.3960906 47.2145996,20.3394497 C47.2609866,20.2828088 47.2996418,20.166382 47.3305664,19.9901658 C47.367676,19.7510153 47.4109698,19.1720281 47.4604492,18.2531867 C47.4851889,17.7308316 47.4975586,17.0511509 47.4975586,16.2141242 L47.4975586,13.1838507 L47.4604492,10.4367804 C47.4542643,9.97735973 47.4357098,9.67842609 47.4047852,9.53997053 C47.3738605,9.40151498 47.3290205,9.29924821 47.2702637,9.23316715 C47.2115069,9.16708609 47.1140957,9.11516603 46.9780273,9.07740543 C46.841959,9.03964482 46.4461296,8.99873811 45.7905273,8.95468407 L45.7905273,8.16171532 C46.576013,8.19947593 47.154295,8.21835595 47.5253906,8.21835595 L48.8706055,8.19003564 L49.7241211,8.16171532 C50.998216,9.85464914 52.5413321,11.8055845 54.3535156,14.0145799 C55.6585352,15.6068188 56.7408811,16.8529001 57.6005859,17.7528612 L57.6005859,15.5721971 C57.6005859,12.1863295 57.5634769,10.1944874 57.4892578,9.59661116 C57.4645181,9.36375409 57.4088546,9.21271393 57.3222656,9.14348616 C57.1800123,9.03020434 56.6975953,8.96727094 55.875,8.95468407 L55.875,8.16171532 C56.6295611,8.19947593 57.3222625,8.21835595 57.953125,8.21835595 C58.5654327,8.21835595 59.3539991,8.19947593 60.3188477,8.16171532 L60.3188477,8.95468407 C59.5642866,8.97356438 59.1158861,9.03020443 58.9736328,9.12460595 C58.9241534,9.15607312 58.8901368,9.20327317 58.871582,9.26620751 C58.7788081,9.58087922 58.718506,10.2998933 58.6906738,11.4232713 C58.6628417,12.5466493 58.6489258,13.3757969 58.6489258,13.9107388 C58.6489258,18.0958725 58.6891272,20.6352352 58.7695312,21.5289028 L58.6489258,21.6138638 C58.1293919,21.5257557 57.6005886,21.4439423 57.0625,21.3684211 C55.0647687,19.0964913 52.2321147,15.6855011 48.5644531,11.1353481 L48.5644531,15.83652 C48.5644531,16.8120023 48.5830076,17.8283767 48.6201172,18.8856737 C48.6448569,19.615712 48.6819659,20.0593925 48.7314453,20.2167283 C48.756185,20.2922496 48.7979326,20.3536096 48.8566895,20.4008104 C48.9154463,20.4480111 49.0190422,20.4810512 49.1674805,20.4999315 C49.5695007,20.5502789 49.8632803,20.5754523 50.0488281,20.5754523 C50.0859377,20.5754523 50.147786,20.5723056 50.234375,20.5660122 L50.234375,21.3306606 C49.0592389,21.3180738 48.3912768,21.3117804 48.2304688,21.3117804 C47.6305309,21.3117804 46.8172252,21.3306604 45.7905273,21.3684211 L45.7905273,20.5660122 Z M61.3393555,21.3684211 L61.3393555,20.5848924 C61.8403345,20.5471318 62.1387528,20.5140918 62.2346191,20.4857713 C62.3304855,20.4574509 62.4124346,20.4133975 62.4804688,20.3536099 C62.5485029,20.2938222 62.6180823,20.1994221 62.689209,20.0704067 C62.7603356,19.9413913 62.9721662,19.4615242 63.324707,18.6307908 C63.4855151,18.2405979 63.7947568,17.4696638 64.2524414,16.3179653 L66.6738281,10.2385382 L67.4902344,8.09563459 L68.8076172,8.09563459 L72.9545898,17.9511033 L73.5297852,19.2443976 L73.9008789,20.1128872 C73.9627282,20.226169 74.0214841,20.3079824 74.0771484,20.3583299 C74.1328128,20.4086774 74.1962073,20.4464374 74.267334,20.4716112 C74.3384606,20.4967849 74.519367,20.5188116 74.8100586,20.5376919 C74.9028325,20.5502788 75.0388988,20.5660121 75.2182617,20.5848924 L75.2182617,21.3684211 L72.6391602,21.3117804 L69.3828125,21.3684211 L69.3828125,20.5848924 C70.1311886,20.5534252 70.5533036,20.5109452 70.6491699,20.457451 C70.7450363,20.4039568 70.7929688,20.3142767 70.7929688,20.188408 C70.7929688,20.0310722 70.7218432,19.7730452 70.5795898,19.4143195 L69.7817383,17.3374966 L65.0131836,17.3374966 L64.6049805,18.4703091 C64.2957341,19.338803 64.1411133,19.8800302 64.1411133,20.094007 C64.1411133,20.2450494 64.190592,20.3520362 64.2895508,20.4149705 C64.437989,20.5030786 64.8802047,20.5597187 65.6162109,20.5848924 L65.6162109,21.3684211 L63.4731445,21.3117804 L61.3393555,21.3684211 Z M65.4399414,16.2613247 C66.0213245,16.280205 66.6800093,16.289645 67.4160156,16.289645 C68.1272822,16.289645 68.7643201,16.280205 69.3271484,16.2613247 L67.3417969,11.3902309 L65.4399414,16.2613247 Z M76.9345703,21.3684211 L76.9345703,20.8869757 C77.0953784,20.817748 77.3211248,20.6950278 77.6118164,20.5188117 C77.7416999,20.4432905 77.8251951,20.3803571 77.8623047,20.3300096 C77.8870444,20.2985424 77.9025065,20.2639291 77.9086914,20.2261684 C77.939616,20.0688326 77.9674478,19.507152 77.9921875,18.5411099 C78.0169272,17.5750677 78.0292969,16.4155198 78.0292969,15.0624315 C78.0292969,13.0737062 78.023112,11.846505 78.0107422,11.3807908 C77.9860025,10.1976252 77.9458011,9.52109117 77.8901367,9.35116845 C77.865397,9.27564724 77.8190108,9.21900718 77.7509766,9.18124657 C77.6087232,9.08684506 77.1355834,9.02391166 76.331543,8.99244449 L76.331543,8.16171532 C77.1170287,8.19947593 78.0138296,8.21835595 79.0219727,8.21835595 C80.1476293,8.21835595 81.2145132,8.19947593 82.2226562,8.16171532 L82.2226562,8.99244449 C81.5237595,9.02391166 81.097006,9.08055172 80.9423828,9.16236637 C80.8743486,9.20012697 80.8248699,9.26148703 80.7939453,9.3464484 C80.7630207,9.43140976 80.7336427,9.82002349 80.7058105,10.5123013 C80.6779784,11.204579 80.6640625,12.0793533 80.6640625,13.1366502 C80.6640625,13.249932 80.6671549,14.1593196 80.6733398,15.8648403 C80.6795248,16.7648014 80.6841634,17.6568823 80.6872559,18.5411099 C80.6903483,19.4253374 80.6949869,19.9618446 80.7011719,20.1506476 C81.5546918,20.1884082 82.1360662,20.2072882 82.4453125,20.2072882 C83.3854214,20.2072882 84.2049119,20.1506482 84.9038086,20.0373664 C85.1573906,19.9996058 85.308919,19.9586991 85.3583984,19.914645 C85.4078779,19.870591 85.4604489,19.7541642 85.5161133,19.5653612 C85.6398118,19.0870602 85.7604161,18.5395396 85.8779297,17.922783 L86.6479492,17.922783 C86.6293944,18.0989992 86.6201172,18.2028393 86.6201172,18.2343065 L86.3881836,20.1412075 C86.3387042,20.7390838 86.3108724,21.0978041 86.3046875,21.2173794 C86.1253246,21.2677269 85.9459644,21.3023402 85.7666016,21.3212205 C85.389321,21.3526877 84.8048542,21.3684211 84.0131836,21.3684211 C83.9018549,21.3684211 83.1751369,21.3526877 81.8330078,21.3212205 C80.8124949,21.2960468 80.101239,21.2834601 79.6992188,21.2834601 C79.0930959,21.2834601 78.1715557,21.3117801 76.9345703,21.3684211 Z" id="SIGNAL"></path>
                    <rect id="Rectangle" fill-rule="nonzero" x="0" y="0" width="96" height="1"></rect>
                    <rect id="Rectangle" fill-rule="nonzero" x="0" y="29" width="96" height="1"></rect>
                    <rect id="Rectangle" fill-rule="nonzero" x="0" y="0" width="1" height="30"></rect>
                    <rect id="Rectangle" fill-rule="nonzero" x="95" y="0" width="1" height="30"></rect>
                </g>
            </g>
        </g>
    </g>
</svg>